<?xml version="1.0" encoding="utf-8"?>
<!-- Generator: Adobe Illustrator 16.0.3, SVG Export Plug-In . SVG Version: 6.00 Build 0)  -->
<!DOCTYPE svg PUBLIC "-//W3C//DTD SVG 1.1//EN" "http://www.w3.org/Graphics/SVG/1.1/DTD/svg11.dtd">
<svg version="1.1" id="Ebene_1" xmlns="http://www.w3.org/2000/svg" xmlns:xlink="http://www.w3.org/1999/xlink" x="0px" y="0px"
	 width="1600px" height="500px" viewBox="0 0 1600 500" enable-background="new 0 0 1600 500" xml:space="preserve">
<g id="Ebene_3">
	<g>
		<g>
			<path fill="#232856" d="M79.14,294.101c-0.095,1.594-0.306,12.129-0.874,14.85c-3.825,18.302-4.676,131.199-3.75,145.988
				c0.059,0.93-2.308,2.662-2.813,2.625l-5.513,0.488c-27.75-2.4-45-33.451-46.351-57.301l-0.824-34.949
				c0-7.953,6-58.051,26.925-58.275l18.2-0.024c8.35-0.5-1.243-17.775,8.105-17.076c0,0,2.312,0.038,3.074,0.133
				C80.253,291.157,79.14,294.101,79.14,294.101z"/>
			<g>
				<path fill="#FFCC03" d="M484.135,324.552c-1.8-7.301-15.235-17.4-23.188-17.4H320.945c-7.953,0-9.911,7.398-31.508,7.299
					c-21.598,0.101-23.557-7.299-31.509-7.299h-140c-7.952,0-21.389,10.101-23.188,17.4c0,0-2.856,10.201-1.9,13.699
					c3.801,13.899,13.699,57,13.699,57c2.602,7.5,11.9,25.799,35.188,26.299h69.712c7.954,0,25.2-6.5,30.201-15.799l35.055-53.877
					c0,0,7.797-7.486,12.214-7.515c0.173,0,0.349-0.002,0.527-0.004c0.178,0.002,0.354,0.004,0.526,0.004
					c4.417,0.027,12.214,7.515,12.214,7.515l35.056,53.877c5,9.299,22.247,15.799,30.2,15.799h69.713
					c23.287-0.5,32.587-18.799,35.188-26.299c0,0,9.899-43.101,13.698-57C486.989,334.754,484.135,324.552,484.135,324.552z"/>
			</g>
			<path fill="#232856" d="M499.047,294.101c0.094,1.594,0.305,12.129,0.874,14.85c3.824,18.302,4.675,131.199,3.75,145.988
				c-0.06,0.93,2.307,2.662,2.813,2.625l5.513,0.488c27.75-2.4,45-33.451,46.351-57.301l0.825-34.949
				c0-7.953-6-58.051-26.926-58.275l-18.199-0.024c-8.351-0.5,1.243-17.775-8.106-17.076c0,0-2.311,0.038-3.074,0.133
				C497.933,291.157,499.047,294.101,499.047,294.101z"/>
			<path fill="#232856" d="M506.716,257.652c-1.085-67.39-14.102-122.702-69.304-162.682l6.368-12.496l-62.023-31.604l-7.023,13.787
				c-15.136-4.55-30.618-10.842-50.294-11.458V41.95h-5.623H259.64h-5.623V53.2c-19.677,0.616-35.158,6.908-50.294,11.458
				l-7.024-13.787l-62.022,31.604l6.367,12.496c-55.202,39.979-68.218,95.292-69.303,162.682c-0.096,5.971,0,19.5,0,19.5
				l24.75,0.147l59.25-3.897c0,0,22.113-1.646,25.195-1.988c51.146-5.662,75.598-18.858,108.292-18.562
				c32.692-0.297,57.145,12.899,108.292,18.562c3.082,0.342,25.195,1.988,25.195,1.988l59.25,3.897l24.75-0.147
				C506.716,277.151,506.811,263.623,506.716,257.652z"/>
		</g>
	</g>
	<rect x="589.896" y="187.279" fill="none" width="877.438" height="125.445"/>
	<g enable-background="new    ">
		<path fill="#232856" d="M680.211,211.951c8.479,0,15.24,0.948,20.28,2.844s8.839,3.857,11.399,5.877
			c2.558,1.896,4.92,4.583,7.08,8.058c2.16,3.478,3.24,8.058,3.24,13.746s-1.121,10.366-3.36,14.031
			c-2.242,3.667-4.643,6.573-7.2,8.721c-2.399,2.023-4.961,3.604-7.68,4.74c-2.723,1.138-5.362,1.991-7.92,2.561
			c-2.562,0.568-5.04,0.947-7.439,1.137c-2.4,0.189-4.481,0.285-6.24,0.285h-48.96v38.488h-25.44V211.951H680.211z M678.051,254.611
			c1.759,0,3.96-0.156,6.6-0.474c2.641-0.314,4.921-1.105,6.841-2.37c0.479-0.379,1.398-1.327,2.76-2.844
			c1.357-1.517,2.04-3.727,2.04-6.636c0-2.527-0.521-4.423-1.561-5.688c-1.042-1.262-1.961-2.21-2.76-2.844
			c-1.763-1.262-3.761-2.021-6-2.275c-2.242-0.252-4.481-0.379-6.72-0.379h-45.84v23.51H678.051z"/>
		<path fill="#232856" d="M745.01,211.951h102.24v19.149h-77.04v18.391h46.8v19.15h-46.8v24.647h81.84v19.149H745.01V211.951z"/>
		<path fill="#232856" d="M943.727,211.951c8.479,0,15.24,0.948,20.28,2.844s8.839,3.857,11.399,5.877
			c2.558,1.896,4.92,4.583,7.08,8.058c2.16,3.478,3.24,8.058,3.24,13.746s-1.121,10.366-3.36,14.031
			c-2.242,3.667-4.643,6.573-7.2,8.721c-2.399,2.023-4.961,3.604-7.68,4.74c-2.723,1.138-5.362,1.991-7.92,2.561
			c-2.562,0.568-5.04,0.947-7.439,1.137c-2.4,0.189-4.481,0.285-6.24,0.285h-48.96v38.488h-25.44V211.951H943.727z M941.567,254.611
			c1.759,0,3.96-0.156,6.6-0.474c2.641-0.314,4.921-1.105,6.841-2.37c0.479-0.379,1.398-1.327,2.76-2.844
			c1.357-1.517,2.04-3.727,2.04-6.636c0-2.527-0.521-4.423-1.561-5.688c-1.042-1.262-1.961-2.21-2.76-2.844
			c-1.763-1.262-3.761-2.021-6-2.275c-2.242-0.252-4.481-0.379-6.72-0.379h-45.84v23.51H941.567z"/>
		<path fill="#232856" d="M1008.526,211.951h102.24v19.149h-77.04v18.391h46.8v19.15h-46.8v24.647h81.84v19.149h-107.04V211.951z"/>
		<path fill="#232856" d="M1241.564,250.25l-40.801,46.453l-40.8-46.453v62.189h-24.96V211.951h19.44l46.319,51.381l46.561-51.381
			h19.439v100.488h-25.199V250.25z"/>
		<path fill="#232856" d="M1378.602,287.601h-57.84l-15.12,24.838h-27.841l62.4-100.488h18.96l62.88,100.488h-27.84
			L1378.602,287.601z M1332.762,268.452h33.84l-17.04-26.923L1332.762,268.452z"/>
	</g>
</g>
</svg>
