<?xml version="1.0" encoding="utf-8"?>
<!-- Generator: Adobe Illustrator 16.0.3, SVG Export Plug-In . SVG Version: 6.00 Build 0)  -->
<!DOCTYPE svg PUBLIC "-//W3C//DTD SVG 1.1//EN" "http://www.w3.org/Graphics/SVG/1.1/DTD/svg11.dtd">
<svg version="1.1" id="Ebene_1" xmlns="http://www.w3.org/2000/svg" xmlns:xlink="http://www.w3.org/1999/xlink" x="0px" y="0px"
	 width="500px" height="500px" viewBox="0 0 500 500" enable-background="new 0 0 500 500" xml:space="preserve">
<g id="Ebene_2">
	<g>
		<g>
			<path fill="#232856" d="M74.569,235.47c-0.078,1.327-0.255,10.105-0.729,12.374c-3.188,15.25-3.896,109.333-3.125,121.657
				c0.049,0.774-1.922,2.219-2.344,2.188l-4.594,0.406c-23.125-2-37.5-27.875-38.625-47.75l-0.688-29.125
				c0-6.628,5-48.375,22.438-48.563l15.167-0.021c6.958-0.418-1.037-14.813,6.755-14.229c0,0,1.926,0.032,2.563,0.109
				C75.496,233.016,74.569,235.47,74.569,235.47z"/>
			<g>
				<path fill="#FFCC03" d="M412.063,260.844c-1.5-6.083-12.696-14.5-19.323-14.5H276.073c-6.628,0-8.26,6.166-26.257,6.083
					c-17.997,0.083-19.63-6.083-26.257-6.083H106.893c-6.627,0-17.823,8.417-19.323,14.5c0,0-2.38,8.502-1.583,11.417
					c3.167,11.584,11.417,47.5,11.417,47.5c2.167,6.25,9.917,21.5,29.323,21.916h58.094c6.628,0,21-5.416,25.167-13.166
					l29.213-44.896c0,0,6.497-6.238,10.178-6.262c0.146,0,0.291-0.002,0.439-0.004c0.147,0.002,0.295,0.004,0.438,0.004
					c3.682,0.022,10.179,6.262,10.179,6.262l29.213,44.896c4.167,7.75,18.539,13.166,25.167,13.166h58.094
					c19.406-0.416,27.156-15.666,29.323-21.916c0,0,8.25-35.916,11.416-47.5C414.443,269.347,412.063,260.844,412.063,260.844z"/>
			</g>
			<path fill="#232856" d="M424.49,235.47c0.078,1.327,0.254,10.105,0.729,12.374c3.188,15.25,3.896,109.333,3.125,121.657
				c-0.049,0.774,1.922,2.219,2.344,2.188l4.594,0.406c23.125-2,37.5-27.875,38.625-47.75l0.688-29.125
				c0-6.628-5-48.375-22.438-48.563l-15.167-0.021c-6.958-0.418,1.037-14.813-6.755-14.229c0,0-1.926,0.032-2.563,0.109
				C423.563,233.016,424.49,235.47,424.49,235.47z"/>
			<path fill="#232856" d="M430.882,205.094c-0.904-56.157-11.751-102.25-57.753-135.567l5.308-10.414l-51.688-26.336l-5.854,11.49
				c-12.613-3.792-25.516-9.035-41.911-9.548v-9.375h-4.688h-49.313h-4.688v9.375c-16.396,0.514-29.298,5.757-41.91,9.548
				l-5.854-11.49l-51.687,26.336l5.306,10.414C80.15,102.844,69.304,148.937,68.4,205.094c-0.08,4.977,0,16.25,0,16.25l20.625,0.125
				l49.375-3.25c0,0,18.428-1.371,20.997-1.655c42.623-4.72,62.998-15.717,90.243-15.47c27.243-0.247,47.619,10.75,90.242,15.47
				c2.568,0.284,20.996,1.655,20.996,1.655l49.375,3.25l20.626-0.125C430.882,221.344,430.962,210.071,430.882,205.094z"/>
		</g>
	</g>
	<rect x="59.563" y="409.72" fill="none" width="380.879" height="73"/>
	<g enable-background="new    ">
		<path fill="#232856" d="M107.113,409.854c3.639,0,6.541,0.406,8.704,1.221c2.163,0.813,3.793,1.655,4.893,2.522
			c1.098,0.813,2.111,1.967,3.039,3.458c0.927,1.492,1.391,3.458,1.391,5.899s-0.481,4.448-1.442,6.021
			c-0.962,1.574-1.992,2.821-3.09,3.743c-1.03,0.868-2.129,1.546-3.296,2.034c-1.168,0.488-2.301,0.854-3.399,1.099
			c-1.099,0.244-2.163,0.406-3.193,0.487c-1.03,0.082-1.923,0.122-2.678,0.122H87.028v16.519H76.11v-43.126H107.113z
			 M106.186,428.163c0.755,0,1.7-0.067,2.833-0.204c1.133-0.135,2.111-0.474,2.936-1.017c0.206-0.163,0.6-0.57,1.185-1.221
			c0.583-0.651,0.875-1.6,0.875-2.848c0-1.085-0.224-1.898-0.669-2.441c-0.448-0.542-0.842-0.948-1.185-1.221
			c-0.756-0.542-1.614-0.867-2.575-0.977c-0.962-0.108-1.923-0.163-2.884-0.163H87.028v10.091H106.186z"/>
		<path fill="#232856" d="M136.056,409.854h43.878v8.218h-33.063v7.894h20.085v8.218h-20.085v10.578h35.123v8.219h-45.938V409.854z"
			/>
		<path fill="#232856" d="M222.471,409.854c3.639,0,6.541,0.406,8.704,1.221c2.163,0.813,3.793,1.655,4.893,2.522
			c1.098,0.813,2.111,1.967,3.039,3.458c0.927,1.492,1.391,3.458,1.391,5.899s-0.481,4.448-1.442,6.021
			c-0.962,1.574-1.992,2.821-3.09,3.743c-1.03,0.868-2.129,1.546-3.296,2.034c-1.168,0.488-2.301,0.854-3.399,1.099
			c-1.099,0.244-2.163,0.406-3.193,0.487c-1.03,0.082-1.923,0.122-2.678,0.122h-21.012v16.519h-10.918v-43.126H222.471z
			 M221.545,428.163c0.755,0,1.7-0.067,2.833-0.204c1.133-0.135,2.111-0.474,2.936-1.017c0.206-0.163,0.6-0.57,1.185-1.221
			c0.583-0.651,0.875-1.6,0.875-2.848c0-1.085-0.224-1.898-0.669-2.441c-0.448-0.542-0.842-0.948-1.185-1.221
			c-0.756-0.542-1.614-0.867-2.575-0.977c-0.962-0.108-1.923-0.163-2.884-0.163h-19.673v10.091H221.545z"/>
		<path fill="#232856" d="M251.414,409.854h43.879v8.218h-33.063v7.894h20.085v8.218h-20.085v10.578h35.123v8.219h-45.938V409.854z"
			/>
		<path fill="#232856" d="M352.558,426.291l-17.51,19.936l-17.51-19.936v26.689h-10.712v-43.126h8.343l19.879,22.051l19.982-22.051
			h8.344v43.126h-10.816V426.291z"/>
		<path fill="#232856" d="M412.505,442.321h-24.823l-6.488,10.659h-11.948l26.78-43.126h8.137l26.986,43.126h-11.949
			L412.505,442.321z M392.832,434.102h14.523l-7.313-11.555L392.832,434.102z"/>
	</g>
</g>
</svg>
